<?xml version="1.0" encoding="utf-8"?>
<svg xmlns="http://www.w3.org/2000/svg" height="24px" viewBox="0 0 800 800" width="24px" fill="#000000">
  <path d="M 80 662.5 L 720 662.5 L 720 323.44 L 80 323.44 L 80 662.5 Z M 23.5 724.3 C 7.833 707.16 0 686.56 0 662.5 L 0 137.5 C 0 113.44 7.833 92.84 23.5 75.7 C 39.167 58.57 58 50 80 50 L 720 50 C 742 50 760.833 58.57 776.5 75.7 C 792.167 92.84 800 113.44 800 137.5 L 800 662.5 C 800 686.56 792.167 707.16 776.5 724.3 C 760.833 741.43 742 750 720 750 L 80 750 C 58 750 39.167 741.43 23.5 724.3 Z M 435 130 C 404.624 130 380 154.624 380 185 C 380 215.376 404.624 240 435 240 C 465.376 240 490 215.376 490 185 C 490 154.624 465.376 130 435 130 Z M 285 130 C 254.624 130 230 154.624 230 185 C 230 215.376 254.624 240 285 240 C 315.376 240 340 215.376 340 185 C 340 154.624 315.376 130 285 130 Z M 135 130 C 104.624 130 80 154.624 80 185 C 80 215.376 104.624 240 135 240 C 165.376 240 190 215.376 190 185 C 190 154.624 165.376 130 135 130 Z"/>
</svg>