<?xml version="1.0" encoding="utf-8"?>
<svg viewBox="0 0 65 65" xmlns="http://www.w3.org/2000/svg" xmlns:bx="https://boxy-svg.com" height="65px">
  <defs>
    <bx:grid x="0" y="0" width="190" height="80"/>
  </defs>
  <g transform="matrix(0.341978, 0, 0, 0.341978, -0.583402, 0.214362)">
    <path d="M 191.776 94.409 C 191.776 146.895 149.227 189.444 96.741 189.444 C 44.255 189.443 1.706 146.894 1.706 94.408 C 1.707 41.922 44.256 -0.627 96.742 -0.626 C 149.228 -0.626 191.777 41.923 191.776 94.409 Z M 72.637 41.889 C 72.637 41.889 73.168 38.55 72.784 36.945 C 72.345 35.114 71.2 33.503 70.079 31.989 C 67.964 29.127 62.62 24.353 62.62 24.353 L 53.398 29.631 C 53.398 29.631 54.644 37.578 56.45 41.096 C 57.271 42.696 58.463 44.16 59.883 45.264 C 61.301 46.368 64.758 47.564 64.758 47.564 L 84.094 84.305 L 94.798 79.299 L 72.637 41.889 Z M 115.385 162.327 C 115.385 162.327 119.396 163.287 121.449 163.274 C 123.623 163.26 125.737 162.818 127.815 162.179 C 130.095 161.479 132.363 160.64 134.431 159.453 C 136.283 158.391 138.358 156.84 139.902 155.361 C 141.633 153.703 143.151 151.766 144.23 149.625 C 145.299 147.501 145.924 143.425 145.924 143.425 L 116.961 102.133 L 94.061 119.099 L 115.385 162.327 Z M 40.994 117.621 C 45.191 115.197 50.555 116.634 52.978 120.832 C 55.402 125.029 53.965 130.393 49.767 132.816 C 45.571 135.237 40.207 133.8 37.783 129.605 C 35.362 125.409 36.799 120.045 40.994 117.621 Z M 130.515 40.311 L 114.05 49.084 L 105.119 80.234 C 105.119 80.234 36.282 109.898 32.981 112.77 C 31.04 114.46 29.606 116.794 28.713 119.21 C 27.95 121.279 27.424 124.35 27.722 126.534 C 28.06 129.004 30.109 133.467 30.109 133.467 C 30.109 133.467 32.883 137.532 34.751 139.179 C 36.744 140.94 39.456 141.809 42.038 142.443 C 44.239 142.984 46.126 143.084 48.834 142.626 C 53.232 141.882 117.993 94.996 117.993 94.996 L 133.354 96.823 L 146.859 97.185 L 153.716 93.364 L 165.386 62.218 L 159.008 50.217 L 142.567 75.727 L 126.425 60.655 L 144.191 43.74 L 130.515 40.311 Z" style="stroke-width: 10.3125px;"/>
  </g>
</svg>