<?xml version="1.0" encoding="utf-8"?>
<svg viewBox="0 0 512 512" xmlns="http://www.w3.org/2000/svg" xmlns:bx="https://boxy-svg.com" width="512px" height="512px">
  <defs>
    <bx:grid x="0" y="0" width="190" height="80"/>
    <bx:export>
      <bx:file format="png" href="#object-0"/>
    </bx:export>
  </defs>
  <g transform="matrix(2.462243, 0, 0, 2.462243, 17.858936, 23.602793)" id="object-0">
    <path d="M 105.231 171.894 C 103.15 172.113 101.061 171.78 98.99 170.951 C 96.919 170.113 94.865 168.781 92.854 166.991 C 90.844 165.201 88.877 162.965 86.979 160.329 C 85.081 157.693 83.25 154.647 81.516 151.26 C 79.781 147.873 78.14 144.124 76.62 140.081 C 75.101 136.047 73.7 131.7 72.447 127.106 C 71.193 122.512 69.937 116.691 69.001 111.651 M 68.191 48.5 C 68.634 45.909 68.914 44.472 69.905 40.789 C 70.898 37.115 72.056 33.765 73.363 30.782 C 74.672 27.809 76.131 25.212 77.725 23.044 C 79.32 20.875 81.052 19.145 82.904 17.904 C 84.757 16.654 86.731 15.893 88.812 15.675 C 90.891 15.456 92.98 15.79 95.052 16.628 C 97.122 17.456 99.176 18.788 101.187 20.578 C 103.197 22.368 105.165 24.604 107.063 27.24 C 108.961 29.886 110.791 32.922 112.525 36.309 C 114.261 39.706 115.901 43.445 117.421 47.489 C 118.941 51.532 120.341 55.869 121.594 60.464 C 122.848 65.058 123.955 69.898 124.891 74.938 C 125.828 79.988 126.592 85.227 127.158 90.617 C 127.725 96.007 128.068 101.301 128.2 106.425 C 128.332 111.549 128.256 116.514 127.985 121.269 C 127.714 126.023 127.247 130.567 126.6 134.828 C 125.954 139.099 125.129 143.107 124.136 146.781 C 123.144 150.454 121.986 153.814 120.678 156.787 C 119.37 159.76 117.91 162.357 116.316 164.525 C 114.721 166.694 112.989 168.424 111.138 169.675 C 109.284 170.915 107.31 171.676 105.231 171.894 M 165.627 135.049 C 164.55 136.843 163.02 138.306 161.091 139.448 C 159.162 140.591 156.838 141.414 154.172 141.927 C 151.506 142.44 148.499 142.642 145.209 142.546 C 141.917 142.45 138.342 142.053 134.538 141.367 C 130.734 140.68 126.703 139.705 122.499 138.449 C 118.295 137.195 113.92 135.66 109.431 133.857 C 104.939 132.053 100.334 129.98 95.669 127.648 C 91.003 125.316 86.28 122.725 81.553 119.885 C 76.826 117.045 72.321 114.09 68.072 111.066 C 63.823 108.042 59.83 104.948 56.13 101.83 C 52.429 98.713 49.019 95.57 45.939 92.448 C 42.857 89.325 40.102 86.223 37.713 83.188 C 35.316 80.149 33.295 77.183 31.657 74.317 C 30.027 71.457 28.797 68.709 27.999 66.115 C 27.202 63.52 26.836 61.081 26.935 58.839 C 27.042 56.602 27.614 54.563 28.691 52.77 C 29.769 50.977 31.301 49.514 33.225 48.37 C 35.159 47.229 37.484 46.407 40.15 45.893 C 42.814 45.38 45.819 45.176 49.109 45.272 C 52.408 45.374 55.976 45.765 59.785 46.454 C 63.585 47.139 67.619 48.115 71.823 49.371 C 76.025 50.625 80.4 52.16 84.891 53.963 C 89.381 55.768 93.987 57.84 98.653 60.172 M 148.383 95.373 C 151.464 98.495 154.218 101.597 156.61 104.633 C 159.002 107.669 161.03 110.64 162.661 113.501 C 164.292 116.361 165.523 119.111 166.322 121.705 C 167.121 124.3 167.486 126.74 167.381 128.979 C 167.278 131.217 166.705 133.256 165.627 135.049 M 164.835 61.126 C 165.753 63.007 166.171 65.075 166.128 67.291 C 166.085 69.506 165.581 71.869 164.652 74.339 C 163.723 76.81 162.369 79.386 160.627 82.029 C 158.885 84.672 156.755 87.382 154.273 90.118 C 151.792 92.853 148.959 95.615 145.813 98.361 C 142.665 101.108 139.204 103.84 135.465 106.517 C 131.725 109.194 130.734 109.724 128.295 111.212 M 74.774 134.344 C 73.075 134.802 73.729 134.73 69.628 135.519 C 65.526 136.308 61.606 136.84 57.923 137.111 C 54.24 137.382 50.792 137.392 47.637 137.138 C 44.481 136.883 41.618 136.364 39.099 135.575 C 36.581 134.786 34.408 133.729 32.636 132.399 C 30.863 131.069 29.492 129.466 28.574 127.584 C 27.658 125.705 27.238 123.636 27.282 121.421 C 27.324 119.205 27.829 116.842 28.758 114.372 C 29.687 111.902 31.041 109.325 32.783 106.682 C 34.525 104.039 36.655 101.329 39.136 98.593 C 41.617 95.858 44.45 93.096 47.598 90.35 C 50.744 87.603 54.206 84.871 57.945 82.194 C 61.685 79.517 65.702 76.896 69.96 74.37 C 74.219 71.844 78.718 69.414 83.421 67.12 C 88.125 64.826 92.809 62.777 97.422 60.976 C 102.033 59.176 106.572 57.624 110.985 56.325 C 115.396 55.027 119.68 53.981 123.782 53.192 C 127.884 52.403 131.804 51.871 135.487 51.6 C 139.171 51.329 142.617 51.319 145.772 51.574 C 148.928 51.828 151.792 52.348 154.31 53.136 C 156.829 53.925 159.002 54.982 160.774 56.313 C 162.546 57.642 163.918 59.246 164.835 61.126" style="fill: none; stroke-width: 16.2454px; stroke: rgba(125, 214, 121, 0.36); visibility: hidden;"/>
    <path d="M 200.687 94.384 C 200.687 151.806 154.138 198.355 96.717 198.355 C 39.296 198.355 -7.253 151.806 -7.253 94.384 C -7.253 36.963 39.296 -9.586 96.717 -9.586 C 154.138 -9.586 200.687 36.963 200.687 94.384 Z M 62.111 38.54 C 60.146 38.272 58.499 38.071 56.498 37.803 C 56.498 37.803 50.513 37.079 47.506 37.11 C 44.311 37.143 41.094 37.375 37.971 38.048 C 35.064 38.675 32.171 39.571 29.603 41.069 C 26.868 42.664 24.37 44.687 22.555 47.281 C 20.767 49.835 19.533 52.815 19.084 55.9 C 18.518 59.788 19.035 63.849 20.071 67.639 C 21.388 72.461 23.845 76.942 26.432 81.219 C 28.719 85 34.312 91.816 34.312 91.816 C 34.312 91.816 30.566 95.968 28.873 98.264 C 26.388 101.634 23.929 105.034 22.295 108.89 C 20.727 112.59 19.456 116.561 19.238 120.574 C 19.058 123.893 19.508 127.327 20.88 130.336 C 21.968 132.722 23.285 134.94 25.309 136.838 C 27.695 139.075 30.636 141.004 33.658 142.255 C 37.488 143.841 41.42 144.466 45.528 145.022 C 49.925 145.617 54.601 145.422 58.944 145.125 C 62.432 144.887 69.357 143.859 69.357 143.859 C 69.357 143.859 71.2 148.441 72.225 150.687 C 73.228 152.885 74.241 155.084 75.431 157.186 C 77.106 160.143 78.846 163.089 80.952 165.757 C 83.349 168.794 85.787 171.812 88.806 174.232 C 91.498 176.39 94.017 177.862 97.274 178.999 C 100.079 179.978 103.314 180.324 106.265 179.983 C 109.585 179.599 112.589 178.433 115.376 176.589 C 118.532 174.501 120.915 171.983 123.193 168.961 C 125.094 166.439 126.653 163.288 127.973 160.419 C 129.603 156.876 131.895 149.09 131.895 149.09 C 131.895 149.09 138.255 150.367 141.16 150.475 C 144.109 150.584 147.068 150.779 150.01 150.559 C 153.255 150.316 156.211 149.961 159.332 149.04 C 162.535 148.095 165.573 146.491 168.146 144.362 C 170.264 142.609 172.258 140.399 173.37 137.884 C 174.93 134.358 175.809 130.629 175.549 126.834 C 175.334 123.69 174.673 120.719 173.56 117.642 C 172.474 114.64 171.042 111.682 169.367 108.965 C 167.835 106.479 166.429 104.163 164.786 101.881 C 163.294 99.808 160.005 95.894 160.005 95.894 C 160.005 95.894 162.975 92.563 164.441 90.627 C 166.525 87.874 168.079 85.846 169.691 82.793 C 171.177 79.978 172.848 76.526 173.56 73.131 C 174.245 69.862 174.538 66.389 173.885 63.115 C 173.149 59.423 171.745 56.367 169.423 53.403 C 167.516 50.968 164.662 48.88 161.921 47.447 C 159.204 46.027 156.19 45.038 153.188 44.419 C 149.5 43.658 145.717 43.424 141.952 43.325 C 139.399 43.258 136.84 43.331 134.294 43.527 C 131.207 43.765 125.08 44.706 125.08 44.706 C 125.08 44.706 123.413 40.3 122.278 37.812 C 120.883 34.755 119.436 31.755 117.71 28.872 C 116.059 26.113 114.424 23.389 112.431 20.866 C 110.559 18.496 108.621 16.122 106.275 14.22 C 103.845 12.249 101.263 10.354 98.358 9.19 C 96.193 8.322 93.881 7.686 91.552 7.561 C 89.273 7.438 86.347 7.776 84.161 8.431 C 81.496 9.229 79.687 10.258 77.425 11.876 C 75.296 13.399 73.316 15.581 71.723 17.659 C 69.686 20.317 67.897 23.269 66.504 26.314 C 64.706 30.245 62.111 38.54 62.111 38.54 Z" style="paint-order: fill; stroke-width: 10.3125px;"/>
    <path style="" d="M 77.798 42.705 C 77.798 42.705 79.085 38.315 79.938 36.197 C 80.883 33.85 81.87 31.493 83.223 29.355 C 84.113 27.949 85.14 26.603 86.365 25.477 C 86.988 24.905 87.668 24.338 88.464 24.052 C 89.2 23.787 90.027 23.717 90.801 23.832 C 91.813 23.982 92.768 24.461 93.641 24.994 C 95.088 25.878 96.323 27.088 97.504 28.305 C 98.733 29.571 99.802 30.989 100.826 32.425 C 101.794 33.782 102.648 35.218 103.483 36.66 C 104.268 38.018 104.982 39.416 105.692 40.815 C 106.338 42.088 106.969 43.369 107.558 44.669 C 108.121 45.912 109.149 48.441 109.149 48.441 C 109.149 48.441 105.706 49.401 104.008 49.955 C 102.524 50.439 99.6 51.537 99.6 51.537 C 99.6 51.537 95.22 49.543 93.011 48.59 C 90.947 47.699 88.878 46.818 86.784 45.999 C 83.813 44.837 77.798 42.705 77.798 42.705 Z"/>
    <path style="" d="M 46.297 80.878 C 46.297 80.878 43.894 77.975 42.757 76.432 C 41.315 74.474 39.91 72.454 38.715 70.336 C 37.647 68.443 36.653 66.485 35.97 64.422 C 35.478 62.936 34.998 61.39 35.017 59.825 C 35.029 58.799 35.168 57.696 35.713 56.827 C 36.176 56.088 36.979 55.594 37.748 55.183 C 39.197 54.409 40.838 54.015 42.453 53.718 C 44.427 53.355 46.455 53.316 48.462 53.345 C 50.7 53.377 52.929 53.667 55.149 53.955 C 57.049 54.201 58.941 54.521 60.817 54.909 C 62.596 55.276 64.357 55.728 66.109 56.208 C 68.391 56.833 70.655 57.525 72.902 58.265 C 74.89 58.919 78.744 60.327 78.744 60.327 C 78.744 60.327 72.833 63.415 69.924 65.043 C 67.681 66.298 65.456 67.587 63.268 68.937 C 61.111 70.268 58.99 71.657 56.892 73.079 C 54.973 74.38 53.077 75.716 51.211 77.093 C 49.547 78.321 46.297 80.878 46.297 80.878 Z"/>
    <path style="" d="M 113.595 126.742 C 110.252 125.415 106.939 124.01 103.677 122.496 C 100.534 121.038 97.438 119.476 94.383 117.841 C 91.176 116.124 88.018 114.312 84.905 112.429 C 82.314 110.862 79.765 109.222 77.252 107.533 C 74.755 105.855 72.295 104.121 69.877 102.331 C 67.504 100.575 65.163 98.775 62.881 96.902 C 61.139 95.472 57.775 92.472 57.775 92.472 C 57.775 92.472 62.02 89.197 64.219 87.666 C 67.002 85.729 69.861 83.892 72.752 82.129 C 75.055 80.725 77.39 79.397 79.764 78.116 C 82.368 76.711 85.004 75.366 87.669 74.08 C 90.106 72.904 92.568 71.777 95.058 70.717 C 97.692 69.596 100.358 68.55 103.04 67.55 C 105.334 66.695 107.648 65.895 109.973 65.131 C 111.343 64.681 114.107 63.857 114.107 63.857 C 114.107 63.857 115.693 70.335 116.358 73.602 C 117.035 76.926 117.623 80.269 118.127 83.624 C 118.532 86.318 118.86 89.024 119.134 91.734 C 119.44 94.762 119.68 97.799 119.844 100.838 C 120.018 104.053 120.114 107.273 120.134 110.493 C 120.151 113.244 120.103 115.996 119.991 118.745 C 119.911 120.709 119.758 122.67 119.613 124.63 C 119.51 126.027 119.384 127.422 119.263 128.819 C 119.263 128.819 115.465 127.484 113.595 126.742 Z"/>
    <path style="" d="M 129.983 60.348 C 129.983 60.348 134.177 59.814 136.25 59.696 C 138.523 59.567 140.768 59.453 143.025 59.535 C 144.811 59.6 146.604 59.73 148.362 60.053 C 149.996 60.353 151.664 60.617 153.171 61.304 C 154.644 61.975 156.208 62.751 157.177 64.047 C 157.678 64.717 157.919 65.597 157.992 66.435 C 158.118 67.869 157.738 69.322 157.33 70.702 C 156.866 72.271 156.12 73.752 155.326 75.183 C 154.229 77.159 152.913 79.013 151.537 80.805 C 150.147 82.615 148.602 84.304 147.04 85.968 C 145.731 87.362 144.354 88.691 142.959 89.999 C 141.722 91.159 140.461 92.299 139.159 93.382 C 138.068 94.29 135.833 96.039 135.833 96.039 C 135.833 96.039 135.304 90.241 134.963 87.35 C 134.641 84.615 134.275 81.885 133.852 79.164 C 133.482 76.786 133.063 74.416 132.606 72.053 C 132.164 69.769 131.675 67.495 131.161 65.226 C 130.791 63.595 130.364 61.958 129.983 60.348 Z"/>
    <path style="" d="M 136.368 115.794 C 136.368 115.794 140.443 112.987 142.427 111.511 C 144.345 110.084 148.074 107.093 148.074 107.093 C 148.074 107.093 150.464 109.928 151.571 111.414 C 152.785 113.043 153.99 114.688 155.016 116.441 C 156.21 118.481 157.365 120.572 158.155 122.8 C 158.713 124.372 159.222 126.012 159.262 127.68 C 159.288 128.749 159.266 129.929 158.705 130.839 C 158.037 131.923 156.803 132.598 155.643 133.124 C 153.879 133.923 151.885 134.119 149.96 134.334 C 148.3 134.52 146.618 134.452 144.948 134.4 C 143.432 134.353 141.918 134.23 140.412 134.058 C 138.615 133.852 135.053 133.209 135.053 133.209 C 135.053 133.209 135.677 127.609 135.891 124.801 C 136.12 121.803 136.368 115.794 136.368 115.794 Z"/>
    <path style="" d="M 81.607 129.305 C 81.607 129.305 86.076 131.836 88.347 133.033 C 91.014 134.438 93.702 135.804 96.431 137.085 C 98.991 138.286 101.589 139.405 104.201 140.489 C 106.643 141.502 109.109 142.456 111.584 143.383 C 113.113 143.956 116.198 145.031 116.198 145.031 C 116.198 145.031 115.106 148.801 114.412 150.635 C 113.697 152.524 112.925 154.4 111.967 156.178 C 111.162 157.671 110.334 159.186 109.206 160.453 C 108.119 161.674 106.973 163.051 105.424 163.574 C 104.368 163.931 103.147 163.78 102.084 163.446 C 100.668 163.001 99.465 162.006 98.338 161.041 C 96.631 159.581 95.221 157.792 93.865 156.001 C 92.457 154.141 91.237 152.14 90.089 150.109 C 88.665 147.589 87.422 144.967 86.243 142.323 C 85.357 140.337 84.555 138.313 83.821 136.266 C 82.999 133.974 81.607 129.305 81.607 129.305 Z"/>
    <path style="" d="M 61.672 116.49 C 61.672 116.49 62.562 120.815 63.052 122.967 C 63.449 124.711 64.316 128.182 64.316 128.182 C 64.316 128.182 60.156 128.795 58.062 128.959 C 55.771 129.139 53.469 129.234 51.172 129.187 C 49.43 129.151 47.683 129.049 45.959 128.799 C 44.31 128.56 42.648 128.282 41.073 127.737 C 39.934 127.343 38.798 126.862 37.821 126.156 C 37.124 125.652 36.411 125.074 36.02 124.307 C 35.472 123.231 35.342 121.943 35.406 120.737 C 35.48 119.328 36.032 117.972 36.558 116.663 C 37.186 115.1 38.049 113.637 38.931 112.202 C 39.819 110.757 40.818 109.381 41.857 108.041 C 43.07 106.478 45.711 103.527 45.711 103.527 C 45.711 103.527 49.104 106.559 50.851 108.016 C 53.087 109.881 55.385 111.67 57.683 113.458 C 59.001 114.484 61.672 116.49 61.672 116.49 Z"/>
  </g>
</svg>