<?xml version="1.0" encoding="utf-8"?>
<svg viewBox="0 0 166 65" xmlns="http://www.w3.org/2000/svg" xmlns:bx="https://boxy-svg.com" height="65px">
  <defs>
    <bx:grid x="0" y="0" width="190" height="80"/>
    <radialGradient id="gradient-2" gradientUnits="userSpaceOnUse" cx="152.286" cy="126.898" r="330" gradientTransform="matrix(0.638467, -1.091841, 1.097297, 0.641658, 52.727183, 218.434182)">
      <stop offset="0" style="stop-color: rgb(0, 170, 237);"/>
      <stop offset="1" style="stop-color: rgb(0, 145, 202);"/>
    </radialGradient>
    <linearGradient id="gradient-3" gradientUnits="userSpaceOnUse" x1="330" y1="0" x2="330" y2="660" gradientTransform="matrix(0.980745, -0.195296, 0.195753, 0.983035, -58.663244, 70.697931)">
      <stop offset="0" style="stop-color: rgb(152, 226, 255);"/>
      <stop offset="1" style="stop-color: rgb(78, 193, 239);"/>
    </linearGradient>
  </defs>
  <g transform="matrix(0.341978, 0, 0, 0.341978, -0.583402, 0.214362)">
    <g transform="matrix(0.273894, -0.073389, 0.073389, 0.273894, -233.282547, -235.615341)" style="transform-origin: 330px 330px;">
      <title>Logomark</title>
      <circle style="fill: url(&quot;#gradient-2&quot;); stroke: url(&quot;#gradient-3&quot;); stroke-width: 10.3125px;" cx="330" cy="330" r="330">
        <title>Main circle</title>
      </circle>
      <g transform="matrix(1, 0, 0, 1, 76.346565, 87.309868)">
        <title>Inner elements</title>
        <path style="fill: rgb(212, 243, 255); transform-box: fill-box; transform-origin: 50% 50%;" d="M 267.555 167.484 L 235.659 194.307 L 136.257 86.799 C 136.257 86.799 123.387 85.882 117.55 83.417 C 111.703 80.952 106.309 77.054 102.05 72.352 C 92.687 62.018 81.188 36.083 81.188 36.083 L 107.784 9.683 C 107.784 9.683 130.348 21.068 140.165 28.884 C 145.363 33.02 150.735 37.464 153.901 43.301 C 156.675 48.416 157.913 60.276 157.913 60.276 L 267.555 167.484 Z" transform="matrix(0.965926, 0.258817, -0.258817, 0.965926, 0.000005, -0.000012)"/>
        <path style="fill: rgb(212, 243, 255); transform-box: fill-box; transform-origin: 50% 50%;" d="M 235.076 354.715 L 297.601 276.02 L 433.952 390.242 C 433.952 390.242 435.541 404.7 433.839 412.908 C 432.117 421.189 428.714 429.171 424.331 436.4 C 420.422 442.846 414.771 450.023 409.429 455.334 C 403.469 461.264 396.508 466.193 389.382 470.658 C 382.885 474.732 376.089 478.166 368.695 480.197 C 361.714 482.115 347.173 482.507 347.173 482.507 L 235.076 354.715 Z" transform="matrix(0.965926, 0.258817, -0.258817, 0.965926, -0.000002, -0.000009)"/>
        <path d="M 85.952 372.023 C 98.038 359.937 117.621 359.937 129.707 372.023 C 141.794 384.11 141.794 403.693 129.707 415.779 C 117.621 427.855 98.038 427.855 85.952 415.779 C 73.876 403.693 73.876 384.11 85.952 372.023 Z M 320.334 26.957 L 272.257 71.868 L 270.267 186.131 C 270.267 186.131 62.852 350.017 54.23 362.814 C 49.157 370.343 46.403 379.603 45.568 388.647 C 44.856 396.392 45.867 407.333 48.878 414.501 C 52.281 422.606 63.336 435.94 63.336 435.94 C 63.336 435.94 76.495 447.253 84.363 451.161 C 92.758 455.338 102.792 455.823 112.166 455.627 C 120.158 455.462 126.676 454.08 135.482 450.048 C 149.786 443.499 327.594 224.668 327.594 224.668 L 381.59 216.872 L 427.924 205.776 L 447.796 186.502 L 459.119 69.754 L 426.439 34.692 L 393.717 136.6 L 324.974 99.99 L 370.05 26.153 L 320.334 26.957 Z" style="stroke-width: 30.9374px; fill: rgb(212, 243, 255); transform-box: fill-box; transform-origin: 50% 50%;" transform="matrix(0.965926, 0.258817, -0.258817, 0.965926, -0.000003, -0.000007)"/>
      </g>
    </g>
    <g transform="matrix(1, 0, 0, 1, -3.848826, -4.564161)" style="">
      <title>Text</title>
      <path d="M 224.881 62.515 L 224.553 57.355 L 249.287 53.997 Q 248.959 49.493 246.175 46.585 Q 243.39 43.678 238.476 43.678 Q 233.398 43.678 230.081 47.323 Q 226.764 50.967 226.764 57.765 L 226.764 59.567 Q 227.338 66.119 231.064 69.517 Q 234.791 72.916 241.261 72.916 Q 244.7 72.916 247.485 71.77 Q 250.27 70.623 251.908 69.313 Q 252.809 69.886 253.341 70.664 Q 253.873 71.442 253.873 72.425 Q 253.873 73.981 252.112 75.332 Q 250.352 76.684 247.444 77.503 Q 244.537 78.322 240.933 78.322 Q 234.627 78.322 229.999 76.028 Q 225.372 73.735 222.874 69.19 Q 220.376 64.644 220.376 58.092 Q 220.376 53.424 221.727 49.78 Q 223.079 46.135 225.495 43.596 Q 227.911 41.057 231.269 39.706 Q 234.627 38.354 238.558 38.354 Q 243.554 38.354 247.362 40.484 Q 251.171 42.613 253.341 46.422 Q 255.511 50.23 255.511 55.144 Q 255.511 56.946 254.692 57.724 Q 253.873 58.502 252.399 58.666 Z M 278.523 72.998 Q 281.963 72.998 284.215 72.302 Q 286.468 71.606 287.451 70.951 L 287.451 59.075 L 277.295 60.14 Q 273.036 60.467 270.989 62.024 Q 268.941 63.58 268.941 66.528 Q 268.941 69.558 271.357 71.278 Q 273.773 72.998 278.523 72.998 Z M 278.442 38.354 Q 285.567 38.354 289.744 41.549 Q 293.921 44.743 293.921 51.622 L 293.921 71.033 Q 293.921 72.834 293.224 73.776 Q 292.528 74.718 291.136 75.537 Q 289.17 76.602 285.894 77.503 Q 282.618 78.404 278.523 78.404 Q 270.825 78.404 266.607 75.373 Q 262.389 72.343 262.389 66.61 Q 262.389 61.286 265.952 58.461 Q 269.514 55.635 275.821 55.062 L 287.451 53.915 L 287.451 51.622 Q 287.451 47.527 284.994 45.644 Q 282.537 43.76 278.36 43.76 Q 275.002 43.76 271.93 44.743 Q 268.859 45.725 266.484 46.954 Q 265.829 46.381 265.297 45.603 Q 264.764 44.825 264.764 44.006 Q 264.764 41.876 267.139 40.73 Q 269.351 39.583 272.258 38.969 Q 275.166 38.354 278.442 38.354 Z M 332.577 67.183 Q 332.577 72.425 328.727 75.373 Q 324.878 78.322 317.589 78.322 Q 311.365 78.322 307.433 76.397 Q 303.502 74.472 303.502 72.179 Q 303.502 71.196 304.034 70.255 Q 304.567 69.313 305.632 68.739 Q 307.843 70.295 310.791 71.606 Q 313.74 72.916 317.507 72.916 Q 326.025 72.916 326.025 67.183 Q 326.025 64.808 324.591 63.293 Q 323.158 61.778 320.374 61.123 L 313.576 59.321 Q 308.58 58.092 306.287 55.513 Q 303.994 52.933 303.994 49.083 Q 303.994 44.743 307.515 41.549 Q 311.037 38.354 318.244 38.354 Q 322.093 38.354 324.96 39.133 Q 327.826 39.911 329.423 41.18 Q 331.021 42.449 331.021 43.924 Q 331.021 44.988 330.488 45.807 Q 329.956 46.626 329.055 47.036 Q 328.072 46.381 326.557 45.603 Q 325.042 44.825 322.994 44.292 Q 320.947 43.76 318.49 43.76 Q 314.886 43.76 312.675 45.152 Q 310.464 46.544 310.464 49.083 Q 310.464 50.885 311.733 52.237 Q 313.003 53.588 315.787 54.243 L 321.438 55.635 Q 327.007 56.946 329.792 59.771 Q 332.577 62.597 332.577 67.183 Z M 348.954 68.821 Q 347.561 66.2 345.596 61.737 Q 343.63 57.273 341.542 51.745 Q 339.453 46.217 337.569 40.484 Q 338.143 39.665 339.085 39.173 Q 340.026 38.682 341.091 38.682 Q 342.483 38.682 343.384 39.419 Q 344.285 40.156 344.859 41.876 Q 347.316 48.756 350.018 55.553 Q 352.721 62.351 355.997 69.64 L 356.325 69.64 Q 358.044 66.2 359.928 61.041 Q 361.812 55.881 363.532 50.148 Q 365.252 44.415 366.398 39.337 Q 366.972 39.092 367.668 38.887 Q 368.364 38.682 369.183 38.682 Q 370.575 38.682 371.476 39.378 Q 372.377 40.074 372.377 41.467 Q 372.377 42.777 371.64 45.848 Q 370.903 48.92 369.633 52.974 Q 368.364 57.028 366.685 61.573 Q 365.006 66.119 363.081 70.5 Q 361.157 74.882 359.191 78.404 Q 355.424 85.365 352.311 89.092 Q 349.199 92.818 346.578 92.818 Q 344.695 92.818 343.671 91.835 Q 342.647 90.852 342.402 89.542 Q 344.203 87.986 346.456 85.406 Q 348.708 82.826 350.796 79.837 Q 352.885 76.847 354.195 74.145 Q 352.803 73.735 351.615 72.671 Q 350.428 71.606 348.954 68.821 Z" style="line-height: 191.825px; text-wrap-mode: nowrap;"/>
      <path d="M 221.71 144.907 L 221.71 138.437 L 231.783 138.437 L 231.783 144.743 Q 231.783 149.084 234.036 150.968 Q 236.288 152.851 240.301 152.851 Q 242.922 152.851 244.723 152.36 Q 246.525 151.869 247.426 151.295 L 247.426 138.437 L 257.5 138.437 L 257.5 152.114 Q 257.5 153.998 256.886 155.267 Q 256.271 156.537 254.551 157.602 Q 252.176 158.994 248.532 159.936 Q 244.887 160.878 240.219 160.878 Q 234.568 160.878 230.391 159.24 Q 226.214 157.602 223.962 154.039 Q 221.71 150.476 221.71 144.907 Z M 257.5 142.368 L 247.426 142.368 L 247.426 121.074 Q 248.081 120.91 249.351 120.706 Q 250.62 120.501 252.013 120.501 Q 254.879 120.501 256.189 121.484 Q 257.5 122.467 257.5 125.169 Z M 231.783 142.368 L 221.71 142.368 L 221.71 121.074 Q 222.365 120.91 223.593 120.706 Q 224.822 120.501 226.296 120.501 Q 229.162 120.501 230.473 121.484 Q 231.783 122.467 231.783 125.169 Z M 268.089 138.109 L 278.163 138.109 L 278.163 147.774 Q 278.163 150.476 279.76 151.623 Q 281.357 152.77 284.306 152.77 Q 285.616 152.77 287.131 152.442 Q 288.646 152.114 289.711 151.623 Q 290.284 152.278 290.776 153.179 Q 291.267 154.08 291.267 155.39 Q 291.267 157.765 289.015 159.322 Q 286.763 160.878 282.012 160.878 Q 275.542 160.878 271.816 157.97 Q 268.089 155.063 268.089 148.511 Z M 274.232 129.756 L 274.232 121.811 L 290.284 121.811 Q 290.612 122.385 290.981 123.449 Q 291.349 124.514 291.349 125.661 Q 291.349 127.708 290.366 128.732 Q 289.383 129.756 287.827 129.756 Z M 278.163 140.321 L 268.089 140.321 L 268.089 110.837 Q 268.745 110.591 270.014 110.345 Q 271.284 110.1 272.676 110.1 Q 275.542 110.1 276.853 111.123 Q 278.163 112.147 278.163 114.768 Z M 298.967 109.444 Q 298.967 107.069 300.645 105.431 Q 302.324 103.793 304.863 103.793 Q 307.484 103.793 309.081 105.431 Q 310.678 107.069 310.678 109.444 Q 310.678 111.738 309.081 113.417 Q 307.484 115.096 304.863 115.096 Q 302.324 115.096 300.645 113.417 Q 298.967 111.738 298.967 109.444 Z M 299.786 138.109 L 309.941 138.109 L 309.941 159.567 Q 309.286 159.813 308.057 160.018 Q 306.829 160.222 305.355 160.222 Q 302.57 160.222 301.178 159.199 Q 299.786 158.175 299.786 155.554 Z M 309.941 143.269 L 299.786 143.269 L 299.786 121.32 Q 300.441 121.074 301.71 120.869 Q 302.98 120.665 304.454 120.665 Q 307.32 120.665 308.631 121.688 Q 309.941 122.712 309.941 125.415 Z M 321.466 138.109 L 331.54 138.601 L 331.54 159.567 Q 330.885 159.813 329.656 160.018 Q 328.428 160.222 326.954 160.222 Q 324.169 160.222 322.818 159.199 Q 321.466 158.175 321.466 155.554 Z M 331.54 143.761 L 321.466 143.269 L 321.466 106.496 Q 322.04 106.332 323.309 106.087 Q 324.579 105.841 325.971 105.841 Q 328.919 105.841 330.23 106.865 Q 331.54 107.888 331.54 110.509 Z M 342.128 109.444 Q 342.128 107.069 343.807 105.431 Q 345.486 103.793 348.025 103.793 Q 350.646 103.793 352.243 105.431 Q 353.84 107.069 353.84 109.444 Q 353.84 111.738 352.243 113.417 Q 350.646 115.096 348.025 115.096 Q 345.486 115.096 343.807 113.417 Q 342.128 111.738 342.128 109.444 Z M 342.947 138.109 L 353.103 138.109 L 353.103 159.567 Q 352.447 159.813 351.219 160.018 Q 349.99 160.222 348.516 160.222 Q 345.732 160.222 344.339 159.199 Q 342.947 158.175 342.947 155.554 Z M 353.103 143.269 L 342.947 143.269 L 342.947 121.32 Q 343.602 121.074 344.872 120.869 Q 346.141 120.665 347.615 120.665 Q 350.482 120.665 351.792 121.688 Q 353.103 122.712 353.103 125.415 Z M 364.05 138.109 L 374.124 138.109 L 374.124 147.774 Q 374.124 150.476 375.721 151.623 Q 377.318 152.77 380.266 152.77 Q 381.577 152.77 383.092 152.442 Q 384.607 152.114 385.672 151.623 Q 386.245 152.278 386.736 153.179 Q 387.228 154.08 387.228 155.39 Q 387.228 157.765 384.975 159.322 Q 382.723 160.878 377.973 160.878 Q 371.503 160.878 367.776 157.97 Q 364.05 155.063 364.05 148.511 Z M 370.193 129.756 L 370.193 121.811 L 386.245 121.811 Q 386.573 122.385 386.941 123.449 Q 387.31 124.514 387.31 125.661 Q 387.31 127.708 386.327 128.732 Q 385.344 129.756 383.788 129.756 Z M 374.124 140.321 L 364.05 140.321 L 364.05 110.837 Q 364.705 110.591 365.975 110.345 Q 367.244 110.1 368.636 110.1 Q 371.503 110.1 372.813 111.123 Q 374.124 112.147 374.124 114.768 Z M 394.923 109.444 Q 394.923 107.069 396.602 105.431 Q 398.281 103.793 400.82 103.793 Q 403.441 103.793 405.038 105.431 Q 406.635 107.069 406.635 109.444 Q 406.635 111.738 405.038 113.417 Q 403.441 115.096 400.82 115.096 Q 398.281 115.096 396.602 113.417 Q 394.923 111.738 394.923 109.444 Z M 395.742 138.109 L 405.898 138.109 L 405.898 159.567 Q 405.243 159.813 404.014 160.018 Q 402.786 160.222 401.311 160.222 Q 398.527 160.222 397.134 159.199 Q 395.742 158.175 395.742 155.554 Z M 405.898 143.269 L 395.742 143.269 L 395.742 121.32 Q 396.397 121.074 397.667 120.869 Q 398.936 120.665 400.41 120.665 Q 403.277 120.665 404.587 121.688 Q 405.898 122.712 405.898 125.415 Z M 421.19 145.48 L 420.78 138.437 L 442.729 135.161 Q 442.484 132.049 440.354 129.756 Q 438.225 127.462 434.13 127.462 Q 429.953 127.462 427.168 130.37 Q 424.384 133.277 424.302 138.683 L 424.548 142.942 Q 425.285 148.183 428.602 150.64 Q 431.919 153.097 436.996 153.097 Q 440.436 153.097 443.385 152.073 Q 446.333 151.05 448.053 149.821 Q 449.199 150.558 449.896 151.664 Q 450.592 152.77 450.592 154.08 Q 450.592 156.209 448.708 157.724 Q 446.824 159.24 443.63 160.059 Q 440.436 160.878 436.341 160.878 Q 430.035 160.878 425.162 158.543 Q 420.289 156.209 417.545 151.541 Q 414.801 146.873 414.801 139.911 Q 414.801 134.915 416.358 131.148 Q 417.914 127.381 420.575 124.883 Q 423.237 122.385 426.759 121.115 Q 430.281 119.846 434.13 119.846 Q 439.535 119.846 443.589 122.016 Q 447.643 124.186 449.978 128.036 Q 452.312 131.885 452.312 136.881 Q 452.312 139.174 451.124 140.28 Q 449.937 141.385 447.807 141.631 Z M 490.679 148.756 Q 490.679 154.489 486.421 157.724 Q 482.162 160.96 474.054 160.96 Q 467.502 160.96 463.325 158.994 Q 459.148 157.028 459.148 153.752 Q 459.148 152.36 459.803 151.172 Q 460.458 149.985 461.523 149.33 Q 463.816 150.804 466.846 151.951 Q 469.877 153.097 473.726 153.097 Q 480.688 153.097 480.688 148.838 Q 480.688 147.037 479.459 145.931 Q 478.231 144.825 475.692 144.334 L 471.023 143.105 Q 465.045 141.795 462.137 139.01 Q 459.23 136.226 459.23 131.557 Q 459.23 126.398 463.489 123.081 Q 467.747 119.764 475.282 119.764 Q 479.213 119.764 482.326 120.542 Q 485.438 121.32 487.199 122.794 Q 488.959 124.268 488.959 126.316 Q 488.959 127.708 488.345 128.814 Q 487.731 129.919 486.748 130.493 Q 485.765 129.919 484.086 129.223 Q 482.407 128.527 480.278 128.077 Q 478.149 127.626 476.019 127.626 Q 472.825 127.626 470.982 128.65 Q 469.14 129.674 469.14 131.557 Q 469.14 132.95 470.204 133.933 Q 471.269 134.915 473.808 135.489 L 477.985 136.471 Q 484.619 138.028 487.649 141.017 Q 490.679 144.006 490.679 148.756 Z" style="line-height: 191.825px; text-wrap-mode: nowrap;"/>
    </g>
  </g>
</svg>